<svg xmlns="http://www.w3.org/2000/svg" width="25" height="25" fill="none"><mask id="a" width="25" height="25" x="0" y="0" maskUnits="userSpaceOnUse" style="mask-type:alpha"><path fill="#D9D9D9" d="M.664.014h24v24h-24z"/></mask><g mask="url(#a)"><path fill="#1C1B1F" d="M4.664 21.014v-9.375l-1.8 1.375-1.2-1.6 3-2.3v-3.1h2v1.575l6-4.575 11 8.4-1.2 1.575-1.8-1.35v9.375h-7v-6h-2v6h-7zm0-16c0-.834.292-1.542.875-2.125a2.893 2.893 0 0 1 2.125-.875.97.97 0 0 0 .713-.288.968.968 0 0 0 .287-.712h2c0 .833-.292 1.541-.875 2.125a2.893 2.893 0 0 1-2.125.875.968.968 0 0 0-.712.287.968.968 0 0 0-.288.713h-2z"/></g></svg>