<svg xmlns="http://www.w3.org/2000/svg" width="24" height="25" fill="none"><mask id="a" width="24" height="25" x="0" y="0" maskUnits="userSpaceOnUse" style="mask-type:alpha"><path fill="#D9D9D9" d="M0 .764h24v24H0z"/></mask><g mask="url(#a)"><path fill="#1C1B1F" d="M18.85 22.739c-.133 0-.258-.021-.375-.063a.877.877 0 0 1-.325-.212l-5.1-5.1a.878.878 0 0 1-.213-.325 1.106 1.106 0 0 1-.062-.375c0-.134.02-.259.063-.375a.877.877 0 0 1 .212-.325l2.125-2.125a.88.88 0 0 1 .325-.213c.117-.041.242-.062.375-.062s.258.02.375.062a.876.876 0 0 1 .325.213l5.1 5.1c.1.1.17.208.212.325.042.116.063.241.063.375 0 .133-.02.258-.063.375a.878.878 0 0 1-.212.325l-2.125 2.125c-.1.1-.208.17-.325.212a1.109 1.109 0 0 1-.375.063zm-13.725.025c-.133 0-.263-.025-.388-.075a.999.999 0 0 1-.337-.225l-2.1-2.1a.999.999 0 0 1-.225-.338A1.034 1.034 0 0 1 2 19.64c0-.134.025-.259.075-.375.05-.117.125-.225.225-.325l5.3-5.3h2.125l.85-.85L6.45 8.664H5.025L2 5.639l2.825-2.825L7.85 5.839v1.425l4.125 4.125 2.9-2.9L13.8 7.414l1.4-1.4h-2.825l-.7-.7 3.55-3.55.7.7v2.825l1.4-1.4 3.55 3.55a2.916 2.916 0 0 1 .875 2.1c0 .4-.075.783-.225 1.15a2.96 2.96 0 0 1-.65.975L18.75 9.539l-1.4 1.4-1.05-1.05-5.175 5.175v2.1l-5.3 5.3c-.1.1-.208.175-.325.225a.942.942 0 0 1-.375.075z"/></g></svg>