<svg xmlns="http://www.w3.org/2000/svg" width="24" height="25" fill="none"><mask id="a" width="24" height="25" x="0" y="0" maskUnits="userSpaceOnUse" style="mask-type:alpha"><path fill="#D9D9D9" d="M0 .5h24v24H0z"/></mask><g mask="url(#a)"><path fill="#1C1B1F" d="M5.024 21.5a1.93 1.93 0 0 1-1.413-.587 1.926 1.926 0 0 1-.588-1.413v-7.95c-.383-.35-.679-.8-.887-1.35-.208-.55-.213-1.15-.013-1.8L3.173 5a2.21 2.21 0 0 1 .713-1.075A1.805 1.805 0 0 1 5.074 3.5h13.9c.45 0 .841.138 1.174.413.334.275.576.637.726 1.087l1.05 3.4c.2.65.195 1.242-.013 1.775a3.951 3.951 0 0 1-.888 1.375v7.95c0 .55-.195 1.02-.587 1.413a1.926 1.926 0 0 1-1.413.587h-14zm9.2-11c.45 0 .791-.154 1.024-.463.234-.308.325-.654.276-1.037l-.55-3.5h-1.95v3.7c0 .35.116.654.35.913.233.258.516.387.85.387zm-4.5 0c.383 0 .695-.13.937-.387.242-.259.363-.563.363-.913V5.5h-1.95L8.523 9c-.067.4.02.75.262 1.05.242.3.554.45.938.45zm-4.45 0c.3 0 .562-.108.787-.325.225-.217.362-.492.412-.825l.55-3.85h-1.95l-1 3.35c-.1.333-.045.692.163 1.075.208.383.554.575 1.038.575zm13.5 0c.483 0 .833-.192 1.05-.575.216-.383.266-.742.15-1.075l-1.05-3.35h-1.9l.55 3.85c.05.333.187.608.412.825a1.1 1.1 0 0 0 .787.325z"/></g></svg>