<svg xmlns="http://www.w3.org/2000/svg" width="24" height="25" fill="none"><mask id="a" width="24" height="25" x="0" y="0" maskUnits="userSpaceOnUse" style="mask-type:alpha"><path fill="#D9D9D9" d="M0 .764h24v24H0z"/></mask><g mask="url(#a)"><path fill="#1C1B1F" d="M6.5 16.264h11v.75a.729.729 0 0 0 .75.75.729.729 0 0 0 .75-.75v-3.1c0-.35-.067-.68-.2-.988a2.592 2.592 0 0 0-.55-.812v-2.35a1.93 1.93 0 0 0-.587-1.413 1.926 1.926 0 0 0-1.413-.587H13a1.77 1.77 0 0 0-1 .3 1.77 1.77 0 0 0-1-.3H7.75c-.55 0-1.02.196-1.412.587a1.926 1.926 0 0 0-.588 1.413v2.35a2.592 2.592 0 0 0-.55.812c-.133.309-.2.638-.2.988v3.1a.729.729 0 0 0 .75.75.729.729 0 0 0 .75-.75v-.75zm0-1.5v-1a.97.97 0 0 1 .287-.713.967.967 0 0 1 .713-.287h9a.97.97 0 0 1 .712.287c.192.192.288.43.288.713v1h-11zm.75-3.5v-2h4v2h-4zm5.5 0v-2h4v2h-4zM4 22.764c-.55 0-1.02-.196-1.413-.588A1.926 1.926 0 0 1 2 20.764v-16c0-.55.196-1.021.587-1.413A1.926 1.926 0 0 1 4 2.764h16c.55 0 1.02.196 1.413.587.391.392.587.863.587 1.413v16c0 .55-.196 1.02-.587 1.412a1.926 1.926 0 0 1-1.413.588H4z"/></g></svg>