<svg xmlns="http://www.w3.org/2000/svg" width="24" height="25" fill="none"><mask id="a" width="24" height="25" x="0" y="0" maskUnits="userSpaceOnUse" style="mask-type:alpha"><path fill="#D9D9D9" d="M0 .5h24v24H0z"/></mask><g mask="url(#a)"><path fill="#1C1B1F" d="M11.852 22.425c-2.9-.433-5.2-1.554-6.9-3.362-1.7-1.809-2.666-4.271-2.9-7.388a1.023 1.023 0 0 1 .663-1.075.861.861 0 0 1 .462-.025c3.05.417 5.4 1.592 7.05 3.525 1.65 1.934 2.567 4.35 2.75 7.25a.876.876 0 0 1-.062.438.944.944 0 0 1-.263.362c-.1.1-.22.18-.362.238a.716.716 0 0 1-.438.037zm.15-9.3c-.233-.367-.77-.904-1.612-1.612-.842-.709-1.554-1.18-2.138-1.413.134-.833.471-1.887 1.013-3.162a17.552 17.552 0 0 1 1.937-3.463.967.967 0 0 1 .363-.3c.142-.066.287-.1.437-.1.15 0 .292.034.425.1a.92.92 0 0 1 .35.325c.75 1.05 1.405 2.2 1.963 3.45s.896 2.3 1.012 3.15c-.65.3-1.375.788-2.175 1.463-.8.675-1.325 1.195-1.575 1.562zm2.95 8.575c-.033-1.017-.187-2.17-.462-3.462-.275-1.292-.704-2.404-1.288-3.338.717-1.1 1.78-2.05 3.188-2.85a11.71 11.71 0 0 1 4.462-1.475.739.739 0 0 1 .45.038 1.13 1.13 0 0 1 .588.587c.058.134.08.284.062.45-.133 2.684-.862 4.863-2.187 6.538-1.325 1.675-2.93 2.846-4.813 3.512z"/></g></svg>